<svg fill="none" xmlns="http://www.w3.org/2000/svg" viewBox="0 0 96 87"><path d="M24.262 69.642c4.603 7.148 3.331 14.488 2.12 17.264v-4.464c-.487-3.323-1.705-11.616-8.69-18.429C10.71 57.201 4.82 51.271 2.498 45.426c-2.323-5.845-2.036-7.873-1.17-8.663 2.235-2.038 4.979-1.703 7.94-.294 2.963 1.41 7.964 6.9 10.473 9.547 2.137 2.253 6.316 5.312 8.527 4.276 2.212-1.035 3.994-4.276 4.796-9.578.801-5.302.624-21.325 1.226-25.055.603-3.73 1.656-11.306 5.874-11.306 4.312 0 4.801 3.529 5.281 5.914.48 2.385.528 16.643.528 20.261 0 4.1.099 6.824.589 6.235.49-.588.89-1.412 1.706-10.117.816-8.705 3.634-17.366 4.94-20.608 1.273-3.156 5.102-7.829 6.765-3.156 1.016 2.855-.646 15.946-1.293 19.868-.878 5.32-.283 15.042.705 15.393 1.235.438 1.805-.892 1.98-1.968.47-2.878 1.19-9.774 1.616-13.425.748-6.434 2.521-13.162 4.698-14.868 2.176-1.706 4.655-.893 5.685 1.77.949 2.453-.364 17.739-1.34 22.17-1.322 5.997-2.643 13.357-1.528 16.87.369 1.164 2.103.657 3.596-1.435 1.711-2.399 6.618-7.823 9.116-10.494 2.498-2.67 5.87-4.94 5.87-4.94 1.616-.746 5.127-1.554 6.247 0 1.4 1.94-.289 6.32-1.4 8.058-.998 1.559-9.455 10.957-11.815 12.582-2.708 1.864-6.494 5.453-7.648 6.547l-.073.069c-1.502 1.422-3.595 3.477-8.004 13.095-4.427 9.654-7.103 12.545-9.241 12.545 2.728-.754 7.156-14.525 9.976-19.166 2.423-3.987 6.972-9.471 11.582-12.585 4.506-3.043 13.052-11.594 15.223-15.885 1.86-3.68-.97-5.482-4.847-3.786-3.876 1.696-11.452 12.467-14.69 16.052-3.363 3.725-5.506 2.017-5.754-1.817-.113-1.743 1.01-14.033 2.12-20.141 1.06-6.21 2.363-18.657-.908-18.779-3.271-.12-5.37 16.353-5.37 16.353s-.688 12.29-3.11 14.47c-2.424 2.181-4.047 0-4.241-1.292 0 0-1.354-8.868.463-19.045 1.818-10.176.887-15.7-.463-15.483-3.786.606-6.663 22.564-8.178 29.682-1.211 5.694-3.05 6.498-4.3 4.846-1.25-1.652-.409-19.455-.56-22.484-.152-3.029-.895-9.258-3.923-9.621-3.03-.364-3.415 7.01-3.718 10.34-.303 3.332-.754 20.307-.977 23.43-.223 3.125-1.396 6.729-4.304 10.484-1.73 2.236-6.294 3.259-9.477.572C15.82 45.91 6.913 36.477 4.12 38.143c-2.793 1.666 2.423 9.843 4.543 12.72 2.71 3.678 10.995 11.631 15.599 18.78Z" fill="#7C97F1" ></path><path d="M41.618 83.089c7.156 4.742 13.184 3.125 15.303 1.724-2.443.287-8.322.165-12.333-2.662-4.884-3.442-8.668-6.581-9.314-13.155-.518-5.26.309-8.805 1.602-9.698 1.976-1.366 8.15-1.497 9.915 8.487 0-5.237 2.846-7.91 4.145-9.13l.017-.016c1.045-.982 3.605-1.745 5.322 2.249 1.716 3.994.715 11.866 0 15.303 3.276-4.655 2.802-12.142 2.155-15.303-.287-1.58-1.746-4.828-5.28-5.173-3.536-.345-5.713 3.305-6.36 5.173-3.017-3.88-6.434-5.173-9.914-3.556-3.688 1.713-3.955 8.18-3.703 11.664.181 2.514 1.289 9.35 8.445 14.093Z" fill="#FFDB14" ></path></svg>